<?xml version="1.0" standalone="no"?>
<!DOCTYPE svg PUBLIC "-//W3C//DTD SVG 20010904//EN"
 "http://www.w3.org/TR/2001/REC-SVG-20010904/DTD/svg10.dtd">
<svg version="1.0" xmlns="http://www.w3.org/2000/svg"
 width="512.000000pt" height="512.000000pt" viewBox="0 0 512.000000 512.000000"
 preserveAspectRatio="xMidYMid meet">

<g transform="translate(0.000000,512.000000) scale(0.100000,-0.100000)"
fill="#000000" stroke="none">
<path d="M2375 4899 c-782 -64 -1478 -510 -1864 -1196 -324 -576 -385 -1281
-167 -1912 116 -334 288 -611 540 -869 705 -723 1792 -913 2701 -472 491 239
898 659 1115 1150 358 809 242 1724 -306 2422 -129 164 -385 396 -564 510
-199 127 -446 236 -665 293 -166 44 -277 62 -445 75 -150 11 -199 11 -345 -1z
m-782 -1725 c17 -9 242 -226 500 -482 l467 -467 468 467 c257 256 483 474 502
484 37 19 116 24 163 11 51 -14 116 -84 133 -144 19 -64 13 -110 -21 -168 -37
-62 -1112 -1131 -1157 -1150 -48 -19 -128 -19 -176 0 -47 20 -1121 1089 -1160
1155 -22 36 -27 57 -26 105 0 34 8 73 17 91 21 41 90 102 124 110 16 3 33 7
38 10 19 7 96 -6 128 -22z"/>
</g>
</svg>
